<svg aria-hidden="true" xmlns="http://www.w3.org/2000/svg" xmlns:xlink="http://www.w3.org/1999/xlink"><symbol viewBox="0 0 21 16" fill="none" id="arrow" xmlns="http://www.w3.org/2000/svg">
<path d="M1.47266 7.00806C0.920371 7.00806 0.472656 7.45577 0.472656 8.00806C0.472656 8.56034 0.920371 9.00806 1.47266 9.00806V7.00806ZM20.5645 8.71516C20.9551 8.32464 20.9551 7.69147 20.5645 7.30095L14.2006 0.936989C13.8101 0.546464 13.1769 0.546464 12.7864 0.936989C12.3958 1.32751 12.3958 1.96068 12.7864 2.3512L18.4432 8.00806L12.7864 13.6649C12.3958 14.0554 12.3958 14.6886 12.7864 15.0791C13.1769 15.4696 13.8101 15.4696 14.2006 15.0791L20.5645 8.71516ZM1.47266 9.00806L19.8574 9.00806V7.00806L1.47266 7.00806V9.00806Z" fill="currentColor"/>
</symbol><symbol viewBox="0 0 23 23" fill="none" id="arrow-card" xmlns="http://www.w3.org/2000/svg">
<path d="M1.58579 18.7606C0.804738 19.5416 0.804738 20.808 1.58579 21.589C2.36684 22.3701 3.63316 22.3701 4.41421 21.589L1.58579 18.7606ZM22.3333 2.84147C22.3333 1.7369 21.4379 0.84147 20.3333 0.841471L2.33333 0.84147C1.22876 0.84147 0.333335 1.7369 0.333335 2.84147C0.333335 3.94604 1.22876 4.84147 2.33333 4.84147L18.3333 4.84147L18.3333 20.8415C18.3333 21.946 19.2288 22.8415 20.3333 22.8415C21.4379 22.8415 22.3333 21.946 22.3333 20.8415L22.3333 2.84147ZM4.41421 21.589L21.7475 4.25568L18.9191 1.42726L1.58579 18.7606L4.41421 21.589Z" fill="currentColor"/>
</symbol><symbol viewBox="0 0 23 24" fill="none" id="arrow-next" xmlns="http://www.w3.org/2000/svg">
<path d="M2.47266 10.5081C1.64423 10.5081 0.972656 11.1796 0.972656 12.0081C0.972656 12.8365 1.64423 13.5081 2.47266 13.5081V10.5081ZM21.9181 13.0687C22.5039 12.4829 22.5039 11.5332 21.9181 10.9474L12.3722 1.40145C11.7864 0.815668 10.8366 0.815668 10.2508 1.40145C9.66505 1.98724 9.66505 2.93699 10.2508 3.52278L18.7361 12.0081L10.2508 20.4933C9.66505 21.0791 9.66505 22.0289 10.2508 22.6147C10.8366 23.2004 11.7864 23.2004 12.3722 22.6147L21.9181 13.0687ZM2.47266 13.5081L20.8574 13.5081V10.5081L2.47266 10.5081V13.5081Z" fill="currentColor"/>
</symbol><symbol viewBox="0 0 30 30" fill="none" id="facebook" xmlns="http://www.w3.org/2000/svg">
<path fill-rule="evenodd" clip-rule="evenodd" d="M14.88 0C6.662 0 0 6.662 0 14.88C0 23.098 6.662 29.76 14.88 29.76C23.098 29.76 29.76 23.098 29.76 14.88C29.76 6.662 23.098 0 14.88 0ZM16.4312 15.534V23.6295H13.0816V15.5344H11.4082V12.7446H13.0816V11.0696C13.0816 8.79376 14.0265 7.44043 16.7112 7.44043H18.9462V10.2305H17.5492C16.5041 10.2305 16.435 10.6204 16.435 11.348L16.4312 12.7443H18.962L18.6659 15.534H16.4312Z" fill="currentColor"/>
</symbol><symbol viewBox="0 0 54 55" fill="none" id="globe" xmlns="http://www.w3.org/2000/svg">
<path d="M53.4721 25.8774C52.8083 14.8994 45.6639 5.70541 35.8683 2.15395C35.6692 2.07927 35.4949 2.32406 35.6318 2.49001C39.7683 7.50189 42.5232 15.9947 42.7928 25.9023C42.7928 26.0185 42.8883 26.1098 43.0044 26.1098H53.2522C53.3767 26.1098 53.4763 26.006 53.468 25.8816L53.4721 25.8774Z" fill="currentColor"/>
<path d="M17.5136 2.31601C7.9421 5.97534 0.996831 15.0615 0.341304 25.8777C0.333006 26.0021 0.43258 26.1059 0.557047 26.1059H10.5103C10.6264 26.1059 10.7177 26.0146 10.7219 25.8984C10.9874 16.0945 13.6925 7.68055 17.7584 2.64792C17.8953 2.48197 17.7169 2.23718 17.5178 2.31601H17.5136Z" fill="currentColor"/>
<path d="M25.189 0.761915C19.0237 2.34265 14.016 13.0676 13.626 25.8836C13.626 26.0039 13.7214 26.1076 13.8417 26.1076H25.2429C25.3591 26.1076 25.4545 26.0122 25.4545 25.896V0.977659C25.4545 0.840745 25.3259 0.732872 25.189 0.766064V0.761915Z" fill="currentColor"/>
<path d="M25.4505 54.0343V29.2197C25.4505 29.1035 25.3551 29.0081 25.2389 29.0081H13.8418C13.7215 29.0081 13.622 29.1076 13.6261 29.2321C14.041 41.9983 19.0363 52.6734 25.185 54.25C25.3177 54.2832 25.4505 54.1795 25.4505 54.0384V54.0343Z" fill="currentColor"/>
<path d="M0.333491 29.2358C0.993168 40.0976 7.99238 49.2128 17.6261 52.843C17.8294 52.9177 18.0037 52.6771 17.8668 52.5111C13.7511 47.5117 11.0003 39.0728 10.7141 29.215C10.7141 29.0988 10.6186 29.0076 10.5025 29.0076H0.549235C0.424768 29.0076 0.325194 29.1113 0.333491 29.2358Z" fill="currentColor"/>
<path d="M28.6222 54.1514C34.6298 52.3052 39.4675 41.7835 39.8782 29.2289C39.8782 29.1086 39.7828 29.0049 39.6625 29.0049H28.5641C28.448 29.0049 28.3525 29.1003 28.3525 29.2165V53.9398C28.3525 54.0809 28.4895 54.1888 28.6264 54.1473L28.6222 54.1514Z" fill="currentColor"/>
<path d="M28.3489 1.06408V25.8911C28.3489 26.0073 28.4443 26.1027 28.5605 26.1027H39.6629C39.7833 26.1027 39.8828 26.0032 39.8787 25.8787C39.4928 13.2785 34.6469 2.7029 28.6186 0.852489C28.4816 0.811 28.3447 0.918872 28.3447 1.05993L28.3489 1.06408Z" fill="currentColor"/>
<path d="M35.7209 53.0105C45.587 49.4963 52.7936 40.265 53.4616 29.2331C53.4699 29.1086 53.3703 29.0049 53.2459 29.0049H42.9939C42.8777 29.0049 42.7865 29.0962 42.7823 29.2123C42.4919 39.1822 39.6831 47.6999 35.4885 52.6744C35.3516 52.8404 35.5176 53.0851 35.7209 53.0105Z" fill="currentColor"/>
</symbol><symbol viewBox="0 0 31 30" fill="none" id="instagram" xmlns="http://www.w3.org/2000/svg">
<path fill-rule="evenodd" clip-rule="evenodd" d="M15.1652 0C6.94716 0 0.285156 6.662 0.285156 14.88C0.285156 23.098 6.94716 29.76 15.1652 29.76C23.3832 29.76 30.0452 23.098 30.0452 14.88C30.0452 6.662 23.3832 0 15.1652 0ZM11.8929 6.99228C12.7395 6.95376 13.01 6.94434 15.1653 6.94434H15.1628C17.3187 6.94434 17.5882 6.95376 18.4348 6.99228C19.2796 7.03097 19.8566 7.16473 20.3626 7.36098C20.885 7.56352 21.3265 7.83467 21.7679 8.27611C22.2094 8.71722 22.4805 9.15999 22.6839 9.68195C22.879 10.1866 23.0129 10.7632 23.0526 11.6081C23.0906 12.4546 23.1005 12.7251 23.1005 14.8804C23.1005 17.0357 23.0906 17.3056 23.0526 18.1521C23.0129 18.9966 22.879 19.5735 22.6839 20.0782C22.4805 20.6 22.2094 21.0428 21.7679 21.4839C21.327 21.9253 20.8849 22.1972 20.3631 22.3999C19.8581 22.5961 19.2808 22.7299 18.4359 22.7686C17.5894 22.8071 17.3197 22.8165 15.1643 22.8165C13.0091 22.8165 12.7388 22.8071 11.8923 22.7686C11.0476 22.7299 10.4707 22.5961 9.9658 22.3999C9.44417 22.1972 9.0014 21.9253 8.56045 21.4839C8.11918 21.0428 7.84803 20.6 7.64516 20.0781C7.44907 19.5735 7.31532 18.9968 7.27646 18.1519C7.2381 17.3054 7.22852 17.0357 7.22852 14.8804C7.22852 12.7251 7.23844 12.4545 7.2763 11.6079C7.31432 10.7634 7.44825 10.1866 7.64499 9.68179C7.84836 9.15999 8.11951 8.71722 8.56095 8.27611C9.00206 7.83483 9.44483 7.56368 9.96679 7.36098C10.4714 7.16473 11.0481 7.03097 11.8929 6.99228Z" fill="currentColor"/>
<path fill-rule="evenodd" clip-rule="evenodd" d="M14.4542 8.37405C14.5924 8.37384 14.7411 8.3739 14.9016 8.37398L15.1661 8.37405C17.285 8.37405 17.5362 8.38166 18.3729 8.41969C19.1467 8.45507 19.5666 8.58436 19.8464 8.69299C20.2167 8.83683 20.4808 9.00878 20.7584 9.28654C21.0361 9.5643 21.2081 9.82884 21.3523 10.1992C21.4609 10.4786 21.5903 10.8986 21.6256 11.6723C21.6636 12.5089 21.6719 12.7602 21.6719 14.8782C21.6719 16.9961 21.6636 17.2474 21.6256 18.084C21.5902 18.8578 21.4609 19.2777 21.3523 19.5572C21.2084 19.9275 21.0361 20.1912 20.7584 20.4688C20.4806 20.7466 20.2169 20.9185 19.8464 21.0624C19.567 21.1715 19.1467 21.3004 18.3729 21.3358C17.5363 21.3739 17.285 21.3821 15.1661 21.3821C13.047 21.3821 12.7958 21.3739 11.9593 21.3358C11.1855 21.3001 10.7655 21.1708 10.4856 21.0622C10.1153 20.9184 9.85073 20.7464 9.57297 20.4686C9.29521 20.1909 9.12326 19.927 8.97909 19.5565C8.87046 19.2771 8.74101 18.8571 8.70579 18.0834C8.66776 17.2468 8.66016 16.9955 8.66016 14.8762C8.66016 12.7569 8.66776 12.5069 8.70579 11.6703C8.74117 10.8966 8.87046 10.4766 8.97909 10.1969C9.12293 9.82652 9.29521 9.56199 9.57297 9.28422C9.85073 9.00646 10.1153 8.83451 10.4856 8.69034C10.7654 8.58122 11.1855 8.45226 11.9593 8.41671C12.6914 8.38364 12.9751 8.37372 14.4542 8.37207V8.37405ZM19.4015 9.69174C18.8758 9.69174 18.4492 10.1178 18.4492 10.6437C18.4492 11.1695 18.8758 11.5961 19.4015 11.5961C19.9273 11.5961 20.3539 11.1695 20.3539 10.6437C20.3539 10.118 19.9273 9.69141 19.4015 9.69141V9.69174ZM11.0898 14.8802C11.0898 12.6295 12.9146 10.8048 15.1652 10.8047C17.4159 10.8047 19.2402 12.6295 19.2402 14.8802C19.2402 17.1309 17.4161 18.9549 15.1654 18.9549C12.9146 18.9549 11.0898 17.1309 11.0898 14.8802Z" fill="currentColor"/>
<path d="M15.1668 12.2344C16.6277 12.2344 17.8122 13.4187 17.8122 14.8797C17.8122 16.3406 16.6277 17.5251 15.1668 17.5251C13.7058 17.5251 12.5215 16.3406 12.5215 14.8797C12.5215 13.4187 13.7058 12.2344 15.1668 12.2344Z" fill="currentColor"/>
</symbol><symbol viewBox="0 0 31 30" fill="none" id="linkedin" xmlns="http://www.w3.org/2000/svg">
<path fill-rule="evenodd" clip-rule="evenodd" d="M15.6417 0C7.42372 0 0.761719 6.662 0.761719 14.88C0.761719 23.098 7.42372 29.76 15.6417 29.76C23.8597 29.76 30.5217 23.098 30.5217 14.88C30.5217 6.662 23.8597 0 15.6417 0ZM7.9043 12.3242H11.2764V22.4561H7.9043V12.3242ZM11.4987 9.1905C11.4768 8.19708 10.7664 7.44043 9.61284 7.44043C8.45925 7.44043 7.70508 8.19708 7.70508 9.1905C7.70508 10.1633 8.43696 10.9418 9.56907 10.9418H9.59062C10.7664 10.9418 11.4987 10.1633 11.4987 9.1905ZM19.5566 12.0859C21.7756 12.0859 23.4392 13.5343 23.4392 16.6464L23.4391 22.4557H20.0671V17.0352C20.0671 15.6736 19.5791 14.7446 18.3584 14.7446C17.4267 14.7446 16.8718 15.3709 16.6281 15.9758C16.539 16.1926 16.5171 16.4947 16.5171 16.7975V22.456H13.1445C13.1445 22.456 13.189 13.2748 13.1445 12.3241H16.5171V13.7592C16.9646 13.0693 17.7662 12.0859 19.5566 12.0859Z" fill="currentColor"/>
</symbol><symbol viewBox="0 0 200 36" fill="none" id="logo" xmlns="http://www.w3.org/2000/svg">
<path d="M157.841 16.6084C157.402 9.3492 152.678 3.26966 146.2 0.921242C146.069 0.871859 145.953 1.03373 146.044 1.14346C148.779 4.45758 150.601 10.0735 150.779 16.6249C150.779 16.7017 150.842 16.7621 150.919 16.7621H157.696C157.778 16.7621 157.844 16.6935 157.838 16.6112L157.841 16.6084Z" fill="currentColor"/>
<path d="M134.067 1.02936C127.737 3.4491 123.145 9.45731 122.711 16.6096C122.706 16.6919 122.772 16.7604 122.854 16.7604H129.436C129.512 16.7604 129.573 16.7001 129.575 16.6233C129.751 10.1404 131.54 4.57667 134.228 1.24883C134.319 1.1391 134.201 0.97723 134.069 1.02936H134.067Z" fill="currentColor"/>
<path d="M139.142 0.00126006C135.065 1.04652 131.754 8.13841 131.496 16.613C131.496 16.6926 131.559 16.7612 131.639 16.7612H139.178C139.255 16.7612 139.318 16.6981 139.318 16.6212V0.143921C139.318 0.0533862 139.233 -0.0179447 139.142 0.00400307V0.00126006Z" fill="currentColor"/>
<path d="M139.315 35.2274V18.8186C139.315 18.7418 139.252 18.6787 139.175 18.6787H131.639C131.559 18.6787 131.493 18.7446 131.496 18.8269C131.771 27.2685 135.074 34.3275 139.14 35.37C139.227 35.392 139.315 35.3234 139.315 35.2301V35.2274Z" fill="currentColor"/>
<path d="M122.707 18.8296C123.144 26.012 127.772 32.0394 134.142 34.44C134.277 34.4894 134.392 34.3302 134.301 34.2205C131.58 30.9146 129.761 25.3344 129.572 18.8159C129.572 18.7391 129.508 18.6787 129.432 18.6787H122.85C122.768 18.6787 122.702 18.7473 122.707 18.8296Z" fill="currentColor"/>
<path d="M141.417 35.3052C145.389 34.0844 148.588 27.1269 148.86 18.8252C148.86 18.7456 148.797 18.677 148.717 18.677H141.378C141.301 18.677 141.238 18.7401 141.238 18.8169V35.1653C141.238 35.2586 141.329 35.3299 141.419 35.3025L141.417 35.3052Z" fill="currentColor"/>
<path d="M141.233 0.201278V16.6182C141.233 16.6951 141.296 16.7582 141.373 16.7582H148.715C148.794 16.7582 148.86 16.6923 148.857 16.61C148.602 8.27807 145.398 1.28495 141.412 0.06136C141.321 0.0339253 141.23 0.105256 141.23 0.198534L141.233 0.201278Z" fill="currentColor"/>
<path d="M146.113 34.5508C152.637 32.227 157.402 26.1228 157.844 18.8279C157.849 18.7456 157.783 18.677 157.701 18.677H150.922C150.845 18.677 150.785 18.7374 150.782 18.8142C150.59 25.4067 148.733 31.0391 145.959 34.3285C145.868 34.4383 145.978 34.6001 146.113 34.5508Z" fill="currentColor"/>
<path d="M35.3741 17.6871C35.3741 7.93357 27.4406 0 17.6871 0C7.93357 0 0 7.93357 0 17.6871C0 27.4406 7.93357 35.3741 17.6871 35.3741C27.4406 35.3741 35.3741 27.4406 35.3741 17.6871ZM17.6871 28.5188C11.7149 28.5188 6.85532 23.6592 6.85532 17.6871C6.85532 11.7149 11.7149 6.85532 17.6871 6.85532C23.6592 6.85532 28.5188 11.7149 28.5188 17.6871C28.5188 23.6592 23.6592 28.5188 17.6871 28.5188Z" fill="currentColor"/>
<path d="M53.0537 34.9206H59.8716V7.14409H72.1089V0.906982H40.8164V7.14409H53.0537V34.9206Z" fill="currentColor"/>
<path d="M87.6099 0.453613H80.7266V34.9207H87.6099V20.4024H106.041V34.9207H112.926V0.453613H106.041V14.419H87.6099V0.453613Z" fill="currentColor"/>
<path d="M193.548 25.1357L174.503 0.453613H167.801V34.9207H174.256V10.2903L193.298 34.9207H200V0.453613H193.548V25.1357Z" fill="currentColor"/>
</symbol><symbol viewBox="0 0 30 30" fill="none" id="twitter" xmlns="http://www.w3.org/2000/svg">
<path fill-rule="evenodd" clip-rule="evenodd" d="M14.9269 0C6.70888 0 0.046875 6.662 0.046875 14.88C0.046875 23.098 6.70888 29.76 14.9269 29.76C23.1449 29.76 29.8069 23.098 29.8069 14.88C29.8069 6.662 23.1449 0 14.9269 0ZM14.5119 12.6093L14.4807 12.0944C14.387 10.7599 15.2093 9.54099 16.5103 9.06814C16.9891 8.90002 17.8009 8.879 18.3317 9.02611C18.5399 9.08916 18.9354 9.29931 19.2164 9.48845L19.7264 9.83521L20.2885 9.65658C20.6007 9.56201 21.0171 9.40439 21.2044 9.29931C21.3813 9.20474 21.5375 9.1522 21.5375 9.18373C21.5375 9.36236 21.1524 9.97181 20.8297 10.3081C20.3926 10.7809 20.5175 10.8229 21.4022 10.5077C21.933 10.3291 21.9434 10.3291 21.8393 10.5287C21.7769 10.6338 21.4542 11.0016 21.1107 11.3378C20.5279 11.9158 20.4966 11.9788 20.4966 12.4622C20.4966 13.2082 20.1428 14.7634 19.7889 15.6145C19.1332 17.2117 17.728 18.8614 16.3229 19.6915C14.3454 20.8579 11.7121 21.1521 9.49512 20.4691C8.75613 20.2379 7.48633 19.6495 7.48633 19.5444C7.48633 19.5129 7.87143 19.4709 8.3398 19.4603C9.31818 19.4393 10.2966 19.1661 11.1292 18.6828L11.6913 18.3465L11.046 18.1259C10.13 17.8106 9.30777 17.0856 9.09961 16.4026C9.03716 16.1819 9.05797 16.1714 9.64084 16.1714L10.2445 16.1609L9.73451 15.9192C9.13083 15.6145 8.5792 15.0996 8.30858 14.5742C8.11082 14.1959 7.86103 13.2397 7.93388 13.1662C7.9547 13.1347 8.17327 13.1977 8.42307 13.2818C9.14124 13.5445 9.23491 13.4814 8.81858 13.0401C8.03797 12.2415 7.79858 11.0541 8.17327 9.92978L8.35021 9.42541L9.03716 10.1084C10.4423 11.4849 12.0972 12.3045 13.9915 12.5462L14.5119 12.6093Z" fill="currentColor"/>
</symbol><symbol viewBox="0 0 41 35" fill="none" id="volume-off" xmlns="http://www.w3.org/2000/svg">
<path d="M0.550781 11.587V23.4265C0.552615 24.3783 1.32282 25.1485 2.27462 25.1503H7.96693V23.6833C7.9651 22.7938 7.96876 10.3987 7.96693 9.86304H2.27462C1.32287 9.86487 0.552612 10.6352 0.550781 11.587Z" fill="currentColor"/>
<path d="M25.4543 0.0992068C25.2232 -0.027329 24.9407 -0.0218269 24.7134 0.113878L9.43359 9.29762V24.0051V25.7143L24.7134 34.898C24.8271 34.9695 24.9591 35.0081 25.0948 35.0081C25.4983 35.0026 25.8229 34.678 25.8284 34.2745V0.736618C25.8265 0.472542 25.6835 0.230484 25.4543 0.0984229L25.4543 0.0992068Z" fill="currentColor"/>
<path d="M39.6769 12.0385C39.5395 11.901 39.354 11.8245 39.1595 11.8245C38.9637 11.8232 38.777 11.901 38.6395 12.0385L28.743 21.935C28.4564 22.2216 28.4564 22.6858 28.743 22.9724C29.0296 23.259 29.4938 23.259 29.7804 22.9724L39.6769 13.0759C39.8143 12.9384 39.8921 12.7517 39.8922 12.5572C39.8922 12.3626 39.8144 12.1759 39.6769 12.0385Z" fill="currentColor"/>
<path d="M28.7433 12.0387C28.6059 12.1761 28.5294 12.3616 28.5293 12.5561C28.528 12.7519 28.6059 12.9386 28.7433 13.0761L38.6398 22.9726C38.9264 23.2592 39.3906 23.2592 39.6772 22.9726C39.9638 22.686 39.9638 22.2218 39.6772 21.9352L29.7807 12.0387C29.6432 11.9012 29.4565 11.8234 29.262 11.8234C29.0675 11.8234 28.8808 11.9012 28.7433 12.0387Z" fill="currentColor"/>
</symbol><symbol viewBox="0 0 42 35" fill="none" id="volume-on" xmlns="http://www.w3.org/2000/svg">
<path d="M0.472656 11.587V23.4265C0.47449 24.3783 1.2447 25.1485 2.1965 25.1503H7.8888V23.6833C7.88697 22.7938 7.89064 10.3987 7.8888 9.86304H2.1965C1.24474 9.86487 0.474487 10.6352 0.472656 11.587Z" fill="currentColor"/>
<path d="M25.3761 0.0992068C25.1451 -0.027329 24.8626 -0.0218269 24.6353 0.113878L9.35547 9.29762V24.0051V25.7143L24.6353 34.898C24.749 34.9695 24.881 35.0081 25.0167 35.0081C25.4202 35.0026 25.7448 34.678 25.7502 34.2745V0.736618C25.7484 0.472542 25.6054 0.230484 25.3761 0.0984229L25.3761 0.0992068Z" fill="currentColor"/>
<path d="M40.8175 13.479C40.6232 13.479 40.4361 13.556 40.2985 13.6936C40.161 13.8311 40.084 14.0182 40.084 14.2126V20.7997C40.084 21.205 40.4122 21.5332 40.8175 21.5332C41.2228 21.5332 41.5511 21.205 41.5511 20.7997V14.2126C41.5511 14.0182 41.4741 13.8311 41.3365 13.6936C41.199 13.556 41.0119 13.479 40.8175 13.479Z" fill="currentColor"/>
<path d="M36.9757 11.4216C36.7814 11.4216 36.5943 11.4987 36.4567 11.6362C36.3192 11.7737 36.2422 11.9608 36.2422 12.1552V22.8577C36.2422 23.2629 36.5704 23.5912 36.9757 23.5912C37.381 23.5912 37.7093 23.2629 37.7093 22.8577V12.1552C37.7093 11.9608 37.6323 11.7737 37.4947 11.6362C37.3572 11.4987 37.1701 11.4216 36.9757 11.4216Z" fill="currentColor"/>
<path d="M33.132 9.77417C32.9376 9.77417 32.7524 9.85119 32.6148 9.98873C32.4755 10.1263 32.3984 10.3133 32.3984 10.5077V24.5035C32.3984 24.9088 32.7267 25.2371 33.132 25.2371C33.5373 25.2371 33.8655 24.9088 33.8655 24.5035V10.5077C33.8655 10.3133 33.7885 10.1263 33.651 9.98873C33.5134 9.85118 33.3264 9.77417 33.132 9.77417Z" fill="currentColor"/>
<path d="M29.2902 13.479C29.0958 13.479 28.9106 13.556 28.773 13.6936C28.6355 13.8311 28.5566 14.0182 28.5566 14.2126V20.7997C28.5566 21.205 28.8867 21.5332 29.2902 21.5332C29.6955 21.5332 30.0237 21.205 30.0237 20.7997V14.2126C30.0237 14.0182 29.9467 13.8311 29.8092 13.6936C29.6716 13.556 29.4864 13.479 29.2902 13.479Z" fill="currentColor"/>
</symbol><symbol viewBox="0 0 31 30" fill="none" id="youtube" xmlns="http://www.w3.org/2000/svg">
<path fill-rule="evenodd" clip-rule="evenodd" d="M15.4034 0C7.18544 0 0.523438 6.662 0.523438 14.88C0.523438 23.098 7.18544 29.76 15.4034 29.76C23.6214 29.76 30.2834 23.098 30.2834 14.88C30.2834 6.662 23.6214 0 15.4034 0ZM21.6038 9.76441C22.2867 9.95182 22.8246 10.504 23.0071 11.2052C23.3388 12.4761 23.3388 15.1278 23.3388 15.1278C23.3388 15.1278 23.3388 17.7795 23.0071 19.0504C22.8246 19.7517 22.2867 20.3038 21.6038 20.4913C20.3661 20.8318 15.4028 20.8318 15.4028 20.8318C15.4028 20.8318 10.4395 20.8318 9.20171 20.4913C8.51877 20.3038 7.98092 19.7517 7.7984 19.0504C7.4668 17.7795 7.4668 15.1278 7.4668 15.1278C7.4668 15.1278 7.4668 12.4761 7.7984 11.2052C7.98092 10.504 8.51877 9.95182 9.20171 9.76441C10.4395 9.42383 15.4028 9.42383 15.4028 9.42383C15.4028 9.42383 20.3661 9.42383 21.6038 9.76441Z" fill="currentColor"/>
<path d="M13.916 17.8565V12.8965L17.884 15.3766L13.916 17.8565Z" fill="currentColor"/>
</symbol></svg>