<svg width="41" height="35" viewBox="0 0 41 35" fill="none" xmlns="http://www.w3.org/2000/svg">
<path d="M0.550781 11.587V23.4265C0.552615 24.3783 1.32282 25.1485 2.27462 25.1503H7.96693V23.6833C7.9651 22.7938 7.96876 10.3987 7.96693 9.86304H2.27462C1.32287 9.86487 0.552612 10.6352 0.550781 11.587Z" fill="white"/>
<path d="M25.4543 0.0992068C25.2232 -0.027329 24.9407 -0.0218269 24.7134 0.113878L9.43359 9.29762V24.0051V25.7143L24.7134 34.898C24.8271 34.9695 24.9591 35.0081 25.0948 35.0081C25.4983 35.0026 25.8229 34.678 25.8284 34.2745V0.736618C25.8265 0.472542 25.6835 0.230484 25.4543 0.0984229L25.4543 0.0992068Z" fill="white"/>
<path d="M39.6769 12.0385C39.5395 11.901 39.354 11.8245 39.1595 11.8245C38.9637 11.8232 38.777 11.901 38.6395 12.0385L28.743 21.935C28.4564 22.2216 28.4564 22.6858 28.743 22.9724C29.0296 23.259 29.4938 23.259 29.7804 22.9724L39.6769 13.0759C39.8143 12.9384 39.8921 12.7517 39.8922 12.5572C39.8922 12.3626 39.8144 12.1759 39.6769 12.0385Z" fill="white"/>
<path d="M28.7433 12.0387C28.6059 12.1761 28.5294 12.3616 28.5293 12.5561C28.528 12.7519 28.6059 12.9386 28.7433 13.0761L38.6398 22.9726C38.9264 23.2592 39.3906 23.2592 39.6772 22.9726C39.9638 22.686 39.9638 22.2218 39.6772 21.9352L29.7807 12.0387C29.6432 11.9012 29.4565 11.8234 29.262 11.8234C29.0675 11.8234 28.8808 11.9012 28.7433 12.0387Z" fill="white"/>
</svg>
