<svg width="42" height="35" viewBox="0 0 42 35" fill="none" xmlns="http://www.w3.org/2000/svg">
<path d="M0.472656 11.587V23.4265C0.47449 24.3783 1.2447 25.1485 2.1965 25.1503H7.8888V23.6833C7.88697 22.7938 7.89064 10.3987 7.8888 9.86304H2.1965C1.24474 9.86487 0.474487 10.6352 0.472656 11.587Z" fill="white"/>
<path d="M25.3761 0.0992068C25.1451 -0.027329 24.8626 -0.0218269 24.6353 0.113878L9.35547 9.29762V24.0051V25.7143L24.6353 34.898C24.749 34.9695 24.881 35.0081 25.0167 35.0081C25.4202 35.0026 25.7448 34.678 25.7502 34.2745V0.736618C25.7484 0.472542 25.6054 0.230484 25.3761 0.0984229L25.3761 0.0992068Z" fill="white"/>
<path d="M40.8175 13.479C40.6232 13.479 40.4361 13.556 40.2985 13.6936C40.161 13.8311 40.084 14.0182 40.084 14.2126V20.7997C40.084 21.205 40.4122 21.5332 40.8175 21.5332C41.2228 21.5332 41.5511 21.205 41.5511 20.7997V14.2126C41.5511 14.0182 41.4741 13.8311 41.3365 13.6936C41.199 13.556 41.0119 13.479 40.8175 13.479Z" fill="white"/>
<path d="M36.9757 11.4216C36.7814 11.4216 36.5943 11.4987 36.4567 11.6362C36.3192 11.7737 36.2422 11.9608 36.2422 12.1552V22.8577C36.2422 23.2629 36.5704 23.5912 36.9757 23.5912C37.381 23.5912 37.7093 23.2629 37.7093 22.8577V12.1552C37.7093 11.9608 37.6323 11.7737 37.4947 11.6362C37.3572 11.4987 37.1701 11.4216 36.9757 11.4216Z" fill="white"/>
<path d="M33.132 9.77417C32.9376 9.77417 32.7524 9.85119 32.6148 9.98873C32.4755 10.1263 32.3984 10.3133 32.3984 10.5077V24.5035C32.3984 24.9088 32.7267 25.2371 33.132 25.2371C33.5373 25.2371 33.8655 24.9088 33.8655 24.5035V10.5077C33.8655 10.3133 33.7885 10.1263 33.651 9.98873C33.5134 9.85118 33.3264 9.77417 33.132 9.77417Z" fill="white"/>
<path d="M29.2902 13.479C29.0958 13.479 28.9106 13.556 28.773 13.6936C28.6355 13.8311 28.5566 14.0182 28.5566 14.2126V20.7997C28.5566 21.205 28.8867 21.5332 29.2902 21.5332C29.6955 21.5332 30.0237 21.205 30.0237 20.7997V14.2126C30.0237 14.0182 29.9467 13.8311 29.8092 13.6936C29.6716 13.556 29.4864 13.479 29.2902 13.479Z" fill="white"/>
</svg>
