<svg width="900" height="924" viewBox="0 0 900 924" fill="none" xmlns="http://www.w3.org/2000/svg">
<g opacity="0.1">
<path d="M450.212 922.838C566.452 922.838 660.684 716.541 660.684 462.061C660.684 207.582 566.452 1.28516 450.212 1.28516C333.972 1.28516 239.74 207.582 239.74 462.061C239.74 716.541 333.972 922.838 450.212 922.838Z" stroke="white" stroke-miterlimit="10"/>
<path d="M450.212 922.838C698.077 922.838 899.012 716.541 899.012 462.061C899.012 207.582 698.077 1.28516 450.212 1.28516C202.347 1.28516 1.41211 207.582 1.41211 462.061C1.41211 716.541 202.347 922.838 450.212 922.838Z" stroke="white" stroke-miterlimit="10"/>
<path d="M450.211 922.838V1.28516" stroke="white" stroke-miterlimit="10"/>
<path d="M1.41211 462.061H899.012" stroke="white" stroke-miterlimit="10"/>
</g>
</svg>
